G75*
%MOIN*%
%OFA0B0*%
%FSLAX25Y25*%
%IPPOS*%
%LPD*%
%AMOC8*
5,1,8,0,0,1.08239X$1,22.5*
%
%ADD10C,0.00500*%
%ADD11R,0.03346X0.03543*%
%ADD12R,0.03346X0.00787*%
%ADD13R,0.09646X0.07677*%
%ADD14R,0.12598X0.07087*%
%ADD15C,0.01102*%
%ADD16R,0.02559X0.11811*%
%ADD17C,0.05000*%
%ADD18C,0.10000*%
%ADD19C,0.02578*%
%ADD20C,0.00600*%
%ADD21C,0.01000*%
%ADD22C,0.00800*%
%ADD23C,0.01200*%
%ADD24C,0.01600*%
%ADD25C,0.08000*%
%ADD26C,0.05000*%
D10*
X0001250Y0001250D02*
X0001250Y0053150D01*
X0138350Y0053150D01*
X0138350Y0001250D01*
X0001250Y0001250D01*
D11*
X0053367Y0011050D03*
X0057933Y0011050D03*
X0058033Y0016750D03*
X0053467Y0016750D03*
X0069667Y0020750D03*
X0074233Y0020750D03*
X0080167Y0021750D03*
X0084733Y0021750D03*
X0091667Y0017250D03*
X0096233Y0017250D03*
G36*
X0101588Y0024716D02*
X0099026Y0022565D01*
X0096750Y0025278D01*
X0099312Y0027429D01*
X0101588Y0024716D01*
G37*
G36*
X0105086Y0027651D02*
X0102524Y0025500D01*
X0100248Y0028213D01*
X0102810Y0030364D01*
X0105086Y0027651D01*
G37*
G36*
X0104282Y0031563D02*
X0106844Y0033714D01*
X0109120Y0031001D01*
X0106558Y0028850D01*
X0104282Y0031563D01*
G37*
G36*
X0107780Y0034499D02*
X0110342Y0036650D01*
X0112618Y0033937D01*
X0110056Y0031786D01*
X0107780Y0034499D01*
G37*
X0070233Y0033250D03*
X0065667Y0033250D03*
X0065667Y0026250D03*
X0070233Y0026250D03*
X0091667Y0008750D03*
X0096233Y0008750D03*
D12*
X0092749Y0026413D03*
X0092749Y0027988D03*
X0092749Y0029563D03*
X0092749Y0031137D03*
X0092749Y0032712D03*
X0092749Y0034287D03*
X0077151Y0034287D03*
X0077151Y0032712D03*
X0077151Y0031137D03*
X0077151Y0029563D03*
X0077151Y0027988D03*
X0077151Y0026413D03*
D13*
X0084950Y0030350D03*
D14*
X0037450Y0032774D03*
X0037450Y0010726D03*
D15*
X0025241Y0005411D02*
X0006659Y0005411D01*
X0006659Y0018089D01*
X0025241Y0018089D01*
X0025241Y0005411D01*
X0025241Y0006458D02*
X0006659Y0006458D01*
X0006659Y0007505D02*
X0025241Y0007505D01*
X0025241Y0008552D02*
X0006659Y0008552D01*
X0006659Y0009599D02*
X0025241Y0009599D01*
X0025241Y0010646D02*
X0006659Y0010646D01*
X0006659Y0011693D02*
X0025241Y0011693D01*
X0025241Y0012740D02*
X0006659Y0012740D01*
X0006659Y0013787D02*
X0025241Y0013787D01*
X0025241Y0014834D02*
X0006659Y0014834D01*
X0006659Y0015881D02*
X0025241Y0015881D01*
X0025241Y0016928D02*
X0006659Y0016928D01*
X0006659Y0017975D02*
X0025241Y0017975D01*
X0025241Y0036911D02*
X0006659Y0036911D01*
X0006659Y0049589D01*
X0025241Y0049589D01*
X0025241Y0036911D01*
X0025241Y0037958D02*
X0006659Y0037958D01*
X0006659Y0039005D02*
X0025241Y0039005D01*
X0025241Y0040052D02*
X0006659Y0040052D01*
X0006659Y0041099D02*
X0025241Y0041099D01*
X0025241Y0042146D02*
X0006659Y0042146D01*
X0006659Y0043193D02*
X0025241Y0043193D01*
X0025241Y0044240D02*
X0006659Y0044240D01*
X0006659Y0045287D02*
X0025241Y0045287D01*
X0025241Y0046334D02*
X0006659Y0046334D01*
X0006659Y0047381D02*
X0025241Y0047381D01*
X0025241Y0048428D02*
X0006659Y0048428D01*
X0006659Y0049475D02*
X0025241Y0049475D01*
X0115159Y0036411D02*
X0133741Y0036411D01*
X0115159Y0036411D02*
X0115159Y0049089D01*
X0133741Y0049089D01*
X0133741Y0036411D01*
X0133741Y0037458D02*
X0115159Y0037458D01*
X0115159Y0038505D02*
X0133741Y0038505D01*
X0133741Y0039552D02*
X0115159Y0039552D01*
X0115159Y0040599D02*
X0133741Y0040599D01*
X0133741Y0041646D02*
X0115159Y0041646D01*
X0115159Y0042693D02*
X0133741Y0042693D01*
X0133741Y0043740D02*
X0115159Y0043740D01*
X0115159Y0044787D02*
X0133741Y0044787D01*
X0133741Y0045834D02*
X0115159Y0045834D01*
X0115159Y0046881D02*
X0133741Y0046881D01*
X0133741Y0047928D02*
X0115159Y0047928D01*
X0115159Y0048975D02*
X0133741Y0048975D01*
X0133741Y0004911D02*
X0115159Y0004911D01*
X0115159Y0017589D01*
X0133741Y0017589D01*
X0133741Y0004911D01*
X0133741Y0005958D02*
X0115159Y0005958D01*
X0115159Y0007005D02*
X0133741Y0007005D01*
X0133741Y0008052D02*
X0115159Y0008052D01*
X0115159Y0009099D02*
X0133741Y0009099D01*
X0133741Y0010146D02*
X0115159Y0010146D01*
X0115159Y0011193D02*
X0133741Y0011193D01*
X0133741Y0012240D02*
X0115159Y0012240D01*
X0115159Y0013287D02*
X0133741Y0013287D01*
X0133741Y0014334D02*
X0115159Y0014334D01*
X0115159Y0015381D02*
X0133741Y0015381D01*
X0133741Y0016428D02*
X0115159Y0016428D01*
X0115159Y0017475D02*
X0133741Y0017475D01*
D16*
X0097214Y0045750D03*
X0087214Y0045750D03*
X0077214Y0045750D03*
X0067214Y0045750D03*
X0057214Y0045750D03*
D17*
X0131350Y0030850D03*
X0131450Y0023450D03*
D18*
X0056950Y0043250D02*
X0052450Y0043250D01*
X0022450Y0043250D01*
X0015950Y0043250D01*
X0021950Y0037250D01*
X0037450Y0037250D01*
X0012450Y0012250D02*
X0013974Y0010726D01*
X0037450Y0010726D01*
D19*
X0041407Y0017053D03*
X0047201Y0017474D03*
X0070233Y0026250D03*
X0062450Y0027250D03*
X0054733Y0031250D03*
X0070233Y0033250D03*
X0067450Y0042250D03*
X0077450Y0042250D03*
X0087450Y0042250D03*
X0100167Y0035750D03*
X0097359Y0032159D03*
X0119450Y0037550D03*
X0124550Y0037850D03*
X0129050Y0037550D03*
X0129450Y0041850D03*
X0124450Y0042750D03*
X0119350Y0041850D03*
X0120350Y0046150D03*
X0124850Y0046750D03*
X0128850Y0046450D03*
X0080167Y0022332D03*
X0102839Y0016189D03*
X0102839Y0016189D03*
X0120050Y0015350D03*
X0124850Y0015350D03*
X0129350Y0015350D03*
X0129050Y0011150D03*
X0124450Y0011250D03*
X0119750Y0011150D03*
X0122750Y0007250D03*
X0126950Y0007550D03*
X0087904Y0006557D03*
X0022450Y0043250D03*
X0015950Y0043250D03*
D20*
X0037450Y0032774D02*
X0037450Y0032250D01*
X0037450Y0023967D01*
X0040767Y0020650D01*
X0040929Y0020650D01*
X0050529Y0011050D01*
X0053367Y0011050D01*
X0057933Y0011050D02*
X0061974Y0011050D01*
X0063474Y0012550D01*
X0092450Y0012550D01*
X0092450Y0009533D01*
X0091667Y0008750D01*
X0088893Y0008593D02*
X0067450Y0008593D01*
X0067450Y0009191D02*
X0088893Y0009191D01*
X0088893Y0009790D02*
X0067450Y0009790D01*
X0067450Y0010388D02*
X0088893Y0010388D01*
X0088893Y0010977D02*
X0088893Y0006523D01*
X0089538Y0005878D01*
X0093795Y0005878D01*
X0093821Y0005904D01*
X0094058Y0005767D01*
X0094389Y0005678D01*
X0095933Y0005678D01*
X0095933Y0008450D01*
X0096533Y0008450D01*
X0096533Y0005678D01*
X0098078Y0005678D01*
X0098408Y0005767D01*
X0098705Y0005938D01*
X0098947Y0006180D01*
X0099118Y0006477D01*
X0099207Y0006807D01*
X0099207Y0008450D01*
X0096534Y0008450D01*
X0096534Y0009050D01*
X0099207Y0009050D01*
X0099207Y0010693D01*
X0099118Y0011023D01*
X0098947Y0011320D01*
X0098917Y0011350D01*
X0098944Y0011350D01*
X0099647Y0012053D01*
X0101650Y0014056D01*
X0101650Y0021765D01*
X0103718Y0023833D01*
X0103718Y0025066D01*
X0106144Y0027101D01*
X0106203Y0027776D01*
X0106916Y0027714D01*
X0109230Y0029656D01*
X0127948Y0029656D01*
X0128298Y0028811D01*
X0129311Y0027798D01*
X0130634Y0027250D01*
X0132066Y0027250D01*
X0133389Y0027798D01*
X0134402Y0028811D01*
X0134950Y0030134D01*
X0134950Y0031566D01*
X0134402Y0032889D01*
X0133389Y0033902D01*
X0132066Y0034450D01*
X0130634Y0034450D01*
X0129311Y0033902D01*
X0128298Y0032889D01*
X0127953Y0032056D01*
X0111622Y0032056D01*
X0110162Y0033795D01*
X0110622Y0034181D01*
X0110236Y0034640D01*
X0109777Y0034255D01*
X0107995Y0036378D01*
X0106812Y0035385D01*
X0106616Y0035105D01*
X0106522Y0034847D01*
X0106486Y0034850D01*
X0104817Y0033450D01*
X0101953Y0033450D01*
X0101250Y0032747D01*
X0099266Y0030763D01*
X0099058Y0030763D01*
X0099548Y0031252D01*
X0099548Y0033065D01*
X0099265Y0033348D01*
X0099461Y0033348D01*
X0099675Y0033561D01*
X0101073Y0033561D01*
X0102355Y0034843D01*
X0102355Y0036657D01*
X0101073Y0037939D01*
X0099260Y0037939D01*
X0097978Y0036657D01*
X0097978Y0035748D01*
X0095872Y0035748D01*
X0095391Y0035267D01*
X0094878Y0035780D01*
X0092953Y0035780D01*
X0090986Y0037747D01*
X0090283Y0038450D01*
X0060494Y0038450D01*
X0061952Y0039908D01*
X0062850Y0042076D01*
X0062850Y0044424D01*
X0061952Y0046592D01*
X0060292Y0048252D01*
X0059593Y0048541D01*
X0059593Y0050600D01*
X0064834Y0050600D01*
X0064834Y0039389D01*
X0065479Y0038744D01*
X0068949Y0038744D01*
X0069593Y0039389D01*
X0069593Y0041298D01*
X0069639Y0041343D01*
X0069639Y0043157D01*
X0069593Y0043202D01*
X0069593Y0050600D01*
X0074834Y0050600D01*
X0074834Y0039389D01*
X0075479Y0038744D01*
X0078949Y0038744D01*
X0079593Y0039389D01*
X0079593Y0041298D01*
X0079639Y0041343D01*
X0079639Y0043157D01*
X0079593Y0043202D01*
X0079593Y0050600D01*
X0084834Y0050600D01*
X0084834Y0039389D01*
X0085479Y0038744D01*
X0088949Y0038744D01*
X0089593Y0039389D01*
X0089593Y0041298D01*
X0089639Y0041343D01*
X0089639Y0043157D01*
X0089593Y0043202D01*
X0089593Y0050600D01*
X0094834Y0050600D01*
X0094834Y0050068D01*
X0094438Y0049904D01*
X0093060Y0048526D01*
X0092314Y0046725D01*
X0092314Y0041775D01*
X0093060Y0039974D01*
X0094438Y0038596D01*
X0096239Y0037850D01*
X0098188Y0037850D01*
X0099790Y0038513D01*
X0100787Y0038100D01*
X0113507Y0038100D01*
X0113507Y0035727D01*
X0114475Y0034760D01*
X0134425Y0034760D01*
X0135393Y0035727D01*
X0135393Y0049773D01*
X0134565Y0050600D01*
X0135800Y0050600D01*
X0135800Y0003800D01*
X0134965Y0003800D01*
X0135393Y0004227D01*
X0135393Y0018273D01*
X0134425Y0019240D01*
X0114475Y0019240D01*
X0113507Y0018273D01*
X0113507Y0004227D01*
X0113935Y0003800D01*
X0067450Y0003800D01*
X0067450Y0011350D01*
X0089266Y0011350D01*
X0088893Y0010977D01*
X0088903Y0010987D02*
X0067450Y0010987D01*
X0063933Y0013750D02*
X0092450Y0013750D01*
X0092450Y0016467D01*
X0091667Y0017250D01*
X0088893Y0016972D02*
X0067450Y0016972D01*
X0067450Y0017250D02*
X0055639Y0029061D01*
X0055640Y0029061D01*
X0056922Y0030343D01*
X0056922Y0031742D01*
X0061231Y0036050D01*
X0063183Y0036050D01*
X0062953Y0035820D01*
X0062782Y0035523D01*
X0062693Y0035193D01*
X0062693Y0033550D01*
X0065366Y0033550D01*
X0065366Y0032950D01*
X0062693Y0032950D01*
X0062693Y0031307D01*
X0062782Y0030977D01*
X0062953Y0030680D01*
X0063195Y0030438D01*
X0063492Y0030267D01*
X0063822Y0030178D01*
X0065367Y0030178D01*
X0065367Y0032950D01*
X0065966Y0032950D01*
X0065966Y0030178D01*
X0067511Y0030178D01*
X0067842Y0030267D01*
X0068079Y0030404D01*
X0068105Y0030378D01*
X0071082Y0030378D01*
X0070442Y0029738D01*
X0070442Y0029122D01*
X0068105Y0029122D01*
X0068079Y0029096D01*
X0067842Y0029233D01*
X0067511Y0029322D01*
X0065966Y0029322D01*
X0065966Y0026550D01*
X0065367Y0026550D01*
X0065367Y0029322D01*
X0063822Y0029322D01*
X0063492Y0029233D01*
X0063195Y0029062D01*
X0062953Y0028820D01*
X0062782Y0028523D01*
X0062693Y0028193D01*
X0062693Y0026550D01*
X0065366Y0026550D01*
X0065366Y0025950D01*
X0062693Y0025950D01*
X0062693Y0024307D01*
X0062782Y0023977D01*
X0062953Y0023680D01*
X0063195Y0023438D01*
X0063492Y0023267D01*
X0063822Y0023178D01*
X0065367Y0023178D01*
X0065367Y0025950D01*
X0065966Y0025950D01*
X0065966Y0023178D01*
X0066871Y0023178D01*
X0066782Y0023023D01*
X0066693Y0022693D01*
X0066693Y0021050D01*
X0069366Y0021050D01*
X0069366Y0020450D01*
X0066693Y0020450D01*
X0066693Y0018807D01*
X0066782Y0018477D01*
X0066953Y0018180D01*
X0067195Y0017938D01*
X0067492Y0017767D01*
X0067822Y0017678D01*
X0069367Y0017678D01*
X0069367Y0020450D01*
X0069966Y0020450D01*
X0069966Y0017678D01*
X0071511Y0017678D01*
X0071842Y0017767D01*
X0072079Y0017904D01*
X0072105Y0017878D01*
X0076362Y0017878D01*
X0077007Y0018523D01*
X0077007Y0022977D01*
X0076362Y0023622D01*
X0075533Y0023622D01*
X0075533Y0023919D01*
X0076300Y0023919D01*
X0077393Y0022826D01*
X0077393Y0019523D01*
X0078038Y0018878D01*
X0082295Y0018878D01*
X0082321Y0018904D01*
X0082558Y0018767D01*
X0082889Y0018678D01*
X0084433Y0018678D01*
X0084433Y0021450D01*
X0085033Y0021450D01*
X0085033Y0018678D01*
X0086578Y0018678D01*
X0086908Y0018767D01*
X0087205Y0018938D01*
X0087447Y0019180D01*
X0087618Y0019477D01*
X0087707Y0019807D01*
X0087707Y0021450D01*
X0085034Y0021450D01*
X0085034Y0022050D01*
X0087707Y0022050D01*
X0087707Y0023693D01*
X0087618Y0024023D01*
X0087447Y0024320D01*
X0087205Y0024562D01*
X0086908Y0024733D01*
X0086578Y0024822D01*
X0085033Y0024822D01*
X0085033Y0022050D01*
X0084433Y0022050D01*
X0084433Y0024822D01*
X0082889Y0024822D01*
X0082558Y0024733D01*
X0082321Y0024596D01*
X0082295Y0024622D01*
X0078992Y0024622D01*
X0078894Y0024720D01*
X0078995Y0024720D01*
X0079326Y0024808D01*
X0079622Y0024979D01*
X0079864Y0025221D01*
X0079872Y0025234D01*
X0079956Y0025211D01*
X0084650Y0025211D01*
X0084650Y0030050D01*
X0079924Y0030050D01*
X0079924Y0030650D01*
X0084650Y0030650D01*
X0084650Y0035489D01*
X0079956Y0035489D01*
X0079653Y0035407D01*
X0079280Y0035780D01*
X0075022Y0035780D01*
X0074378Y0035136D01*
X0074378Y0033912D01*
X0073007Y0033912D01*
X0073007Y0035477D01*
X0072434Y0036050D01*
X0089289Y0036050D01*
X0089850Y0035489D01*
X0085250Y0035489D01*
X0085250Y0030650D01*
X0084650Y0030650D01*
X0084650Y0030050D01*
X0085250Y0030050D01*
X0085250Y0025211D01*
X0089944Y0025211D01*
X0090247Y0025293D01*
X0090620Y0024920D01*
X0094878Y0024920D01*
X0095171Y0025213D01*
X0095638Y0025213D01*
X0095613Y0024920D01*
X0097969Y0022112D01*
X0097969Y0020322D01*
X0096533Y0020322D01*
X0096533Y0017550D01*
X0095933Y0017550D01*
X0095933Y0020322D01*
X0094389Y0020322D01*
X0094058Y0020233D01*
X0093821Y0020096D01*
X0093795Y0020122D01*
X0089538Y0020122D01*
X0088893Y0019477D01*
X0088893Y0015023D01*
X0088966Y0014950D01*
X0067450Y0014950D01*
X0067450Y0017250D01*
X0067129Y0017571D02*
X0088893Y0017571D01*
X0088893Y0018169D02*
X0076653Y0018169D01*
X0077007Y0018768D02*
X0082557Y0018768D01*
X0084433Y0018768D02*
X0085033Y0018768D01*
X0085033Y0019366D02*
X0084433Y0019366D01*
X0084433Y0019965D02*
X0085033Y0019965D01*
X0085033Y0020563D02*
X0084433Y0020563D01*
X0084433Y0021162D02*
X0085033Y0021162D01*
X0085034Y0021760D02*
X0097969Y0021760D01*
X0097762Y0022359D02*
X0087707Y0022359D01*
X0087707Y0022957D02*
X0097260Y0022957D01*
X0096758Y0023556D02*
X0087707Y0023556D01*
X0087543Y0024154D02*
X0096255Y0024154D01*
X0095753Y0024753D02*
X0086835Y0024753D01*
X0085250Y0025351D02*
X0084650Y0025351D01*
X0084650Y0025950D02*
X0085250Y0025950D01*
X0085250Y0026548D02*
X0084650Y0026548D01*
X0084650Y0027147D02*
X0085250Y0027147D01*
X0085250Y0027745D02*
X0084650Y0027745D01*
X0084650Y0028344D02*
X0085250Y0028344D01*
X0085250Y0028942D02*
X0084650Y0028942D01*
X0084650Y0029541D02*
X0085250Y0029541D01*
X0084650Y0030139D02*
X0079924Y0030139D01*
X0079724Y0028986D02*
X0081088Y0030350D01*
X0084950Y0030350D01*
X0084650Y0030738D02*
X0085250Y0030738D01*
X0085250Y0031336D02*
X0084650Y0031336D01*
X0084650Y0031935D02*
X0085250Y0031935D01*
X0085250Y0032533D02*
X0084650Y0032533D01*
X0084650Y0033132D02*
X0085250Y0033132D01*
X0085250Y0033730D02*
X0084650Y0033730D01*
X0084650Y0034329D02*
X0085250Y0034329D01*
X0085250Y0034927D02*
X0084650Y0034927D01*
X0079534Y0035526D02*
X0089813Y0035526D01*
X0089786Y0037250D02*
X0092749Y0034287D01*
X0092749Y0034306D01*
X0095132Y0035526D02*
X0095650Y0035526D01*
X0096369Y0034548D02*
X0098964Y0034548D01*
X0100167Y0035750D01*
X0097978Y0036124D02*
X0092609Y0036124D01*
X0092010Y0036723D02*
X0098044Y0036723D01*
X0098642Y0037321D02*
X0091412Y0037321D01*
X0090813Y0037920D02*
X0096070Y0037920D01*
X0094625Y0038518D02*
X0060562Y0038518D01*
X0061161Y0039117D02*
X0065106Y0039117D01*
X0064834Y0039715D02*
X0061759Y0039715D01*
X0062120Y0040314D02*
X0064834Y0040314D01*
X0064834Y0040912D02*
X0062368Y0040912D01*
X0062616Y0041511D02*
X0064834Y0041511D01*
X0064834Y0042109D02*
X0062850Y0042109D01*
X0062850Y0042708D02*
X0064834Y0042708D01*
X0064834Y0043307D02*
X0062850Y0043307D01*
X0062850Y0043905D02*
X0064834Y0043905D01*
X0064834Y0044504D02*
X0062817Y0044504D01*
X0062569Y0045102D02*
X0064834Y0045102D01*
X0064834Y0045701D02*
X0062321Y0045701D01*
X0062073Y0046299D02*
X0064834Y0046299D01*
X0064834Y0046898D02*
X0061646Y0046898D01*
X0061048Y0047496D02*
X0064834Y0047496D01*
X0064834Y0048095D02*
X0060449Y0048095D01*
X0059593Y0048693D02*
X0064834Y0048693D01*
X0064834Y0049292D02*
X0059593Y0049292D01*
X0059593Y0049890D02*
X0064834Y0049890D01*
X0064834Y0050489D02*
X0059593Y0050489D01*
X0069593Y0050489D02*
X0074834Y0050489D01*
X0074834Y0049890D02*
X0069593Y0049890D01*
X0069593Y0049292D02*
X0074834Y0049292D01*
X0074834Y0048693D02*
X0069593Y0048693D01*
X0069593Y0048095D02*
X0074834Y0048095D01*
X0074834Y0047496D02*
X0069593Y0047496D01*
X0069593Y0046898D02*
X0074834Y0046898D01*
X0074834Y0046299D02*
X0069593Y0046299D01*
X0069593Y0045701D02*
X0074834Y0045701D01*
X0074834Y0045102D02*
X0069593Y0045102D01*
X0069593Y0044504D02*
X0074834Y0044504D01*
X0074834Y0043905D02*
X0069593Y0043905D01*
X0069593Y0043307D02*
X0074834Y0043307D01*
X0074834Y0042708D02*
X0069639Y0042708D01*
X0069639Y0042109D02*
X0074834Y0042109D01*
X0074834Y0041511D02*
X0069639Y0041511D01*
X0069593Y0040912D02*
X0074834Y0040912D01*
X0074834Y0040314D02*
X0069593Y0040314D01*
X0069593Y0039715D02*
X0074834Y0039715D01*
X0075106Y0039117D02*
X0069321Y0039117D01*
X0067450Y0042250D02*
X0067214Y0045750D01*
X0057214Y0045750D02*
X0054714Y0043250D01*
X0052450Y0043250D01*
X0060733Y0037250D02*
X0089786Y0037250D01*
X0089321Y0039117D02*
X0093917Y0039117D01*
X0093319Y0039715D02*
X0089593Y0039715D01*
X0089593Y0040314D02*
X0092919Y0040314D01*
X0092671Y0040912D02*
X0089593Y0040912D01*
X0089639Y0041511D02*
X0092423Y0041511D01*
X0092314Y0042109D02*
X0089639Y0042109D01*
X0089639Y0042708D02*
X0092314Y0042708D01*
X0092314Y0043307D02*
X0089593Y0043307D01*
X0089593Y0043905D02*
X0092314Y0043905D01*
X0092314Y0044504D02*
X0089593Y0044504D01*
X0089593Y0045102D02*
X0092314Y0045102D01*
X0092314Y0045701D02*
X0089593Y0045701D01*
X0089593Y0046299D02*
X0092314Y0046299D01*
X0092385Y0046898D02*
X0089593Y0046898D01*
X0089593Y0047496D02*
X0092633Y0047496D01*
X0092881Y0048095D02*
X0089593Y0048095D01*
X0089593Y0048693D02*
X0093227Y0048693D01*
X0093826Y0049292D02*
X0089593Y0049292D01*
X0089593Y0049890D02*
X0094424Y0049890D01*
X0094834Y0050489D02*
X0089593Y0050489D01*
X0084834Y0050489D02*
X0079593Y0050489D01*
X0079593Y0049890D02*
X0084834Y0049890D01*
X0084834Y0049292D02*
X0079593Y0049292D01*
X0079593Y0048693D02*
X0084834Y0048693D01*
X0084834Y0048095D02*
X0079593Y0048095D01*
X0079593Y0047496D02*
X0084834Y0047496D01*
X0084834Y0046898D02*
X0079593Y0046898D01*
X0079593Y0046299D02*
X0084834Y0046299D01*
X0084834Y0045701D02*
X0079593Y0045701D01*
X0079593Y0045102D02*
X0084834Y0045102D01*
X0084834Y0044504D02*
X0079593Y0044504D01*
X0079593Y0043905D02*
X0084834Y0043905D01*
X0084834Y0043307D02*
X0079593Y0043307D01*
X0079639Y0042708D02*
X0084834Y0042708D01*
X0084834Y0042109D02*
X0079639Y0042109D01*
X0079639Y0041511D02*
X0084834Y0041511D01*
X0084834Y0040912D02*
X0079593Y0040912D01*
X0079593Y0040314D02*
X0084834Y0040314D01*
X0084834Y0039715D02*
X0079593Y0039715D01*
X0079321Y0039117D02*
X0085106Y0039117D01*
X0074768Y0035526D02*
X0072958Y0035526D01*
X0073007Y0034927D02*
X0074378Y0034927D01*
X0074378Y0034329D02*
X0073007Y0034329D01*
X0070771Y0032712D02*
X0070233Y0033250D01*
X0070771Y0032712D02*
X0077151Y0032712D01*
X0070843Y0030139D02*
X0056718Y0030139D01*
X0056922Y0030738D02*
X0062920Y0030738D01*
X0062693Y0031336D02*
X0056922Y0031336D01*
X0057115Y0031935D02*
X0062693Y0031935D01*
X0062693Y0032533D02*
X0057714Y0032533D01*
X0058312Y0033132D02*
X0065366Y0033132D01*
X0065367Y0032533D02*
X0065966Y0032533D01*
X0065966Y0031935D02*
X0065367Y0031935D01*
X0065367Y0031336D02*
X0065966Y0031336D01*
X0065966Y0030738D02*
X0065367Y0030738D01*
X0065367Y0028942D02*
X0065966Y0028942D01*
X0065966Y0028344D02*
X0065367Y0028344D01*
X0065367Y0027745D02*
X0065966Y0027745D01*
X0065966Y0027147D02*
X0065367Y0027147D01*
X0065366Y0026548D02*
X0058152Y0026548D01*
X0058750Y0025950D02*
X0062693Y0025950D01*
X0062693Y0025351D02*
X0059349Y0025351D01*
X0059947Y0024753D02*
X0062693Y0024753D01*
X0062734Y0024154D02*
X0060546Y0024154D01*
X0061144Y0023556D02*
X0063078Y0023556D01*
X0061743Y0022957D02*
X0066764Y0022957D01*
X0066693Y0022359D02*
X0062341Y0022359D01*
X0062940Y0021760D02*
X0066693Y0021760D01*
X0066693Y0021162D02*
X0063538Y0021162D01*
X0064137Y0020563D02*
X0069366Y0020563D01*
X0069367Y0019965D02*
X0069966Y0019965D01*
X0069966Y0019366D02*
X0069367Y0019366D01*
X0069367Y0018768D02*
X0069966Y0018768D01*
X0069966Y0018169D02*
X0069367Y0018169D01*
X0066964Y0018169D02*
X0066531Y0018169D01*
X0066704Y0018768D02*
X0065932Y0018768D01*
X0065334Y0019366D02*
X0066693Y0019366D01*
X0066693Y0019965D02*
X0064735Y0019965D01*
X0067450Y0016373D02*
X0088893Y0016373D01*
X0088893Y0015775D02*
X0067450Y0015775D01*
X0067450Y0015176D02*
X0088893Y0015176D01*
X0092450Y0013750D02*
X0097950Y0013750D01*
X0099169Y0014969D01*
X0099169Y0024997D01*
X0099168Y0024997D02*
X0099166Y0025071D01*
X0099160Y0025145D01*
X0099151Y0025219D01*
X0099137Y0025291D01*
X0099120Y0025363D01*
X0099099Y0025435D01*
X0099074Y0025504D01*
X0099046Y0025573D01*
X0099014Y0025640D01*
X0098978Y0025705D01*
X0098940Y0025768D01*
X0098898Y0025829D01*
X0098852Y0025888D01*
X0098804Y0025944D01*
X0098753Y0025998D01*
X0098699Y0026049D01*
X0098643Y0026097D01*
X0098584Y0026143D01*
X0098523Y0026185D01*
X0098460Y0026223D01*
X0098395Y0026259D01*
X0098328Y0026291D01*
X0098259Y0026319D01*
X0098190Y0026344D01*
X0098118Y0026365D01*
X0098046Y0026382D01*
X0097974Y0026396D01*
X0097900Y0026405D01*
X0097826Y0026411D01*
X0097752Y0026413D01*
X0092749Y0026413D01*
X0092749Y0027988D02*
X0098577Y0027988D01*
X0098948Y0028358D01*
X0099696Y0028358D01*
X0100067Y0027988D01*
X0102612Y0027988D01*
X0102624Y0027987D01*
X0102636Y0027982D01*
X0102647Y0027976D01*
X0102656Y0027967D01*
X0102662Y0027956D01*
X0102667Y0027944D01*
X0102668Y0027932D01*
X0102667Y0027932D02*
X0102518Y0027783D01*
X0102518Y0024330D01*
X0100450Y0022262D01*
X0100450Y0014553D01*
X0098447Y0012550D01*
X0092450Y0012550D01*
X0099180Y0011585D02*
X0113507Y0011585D01*
X0113507Y0010987D02*
X0099128Y0010987D01*
X0099207Y0010388D02*
X0113507Y0010388D01*
X0113507Y0009790D02*
X0099207Y0009790D01*
X0099207Y0009191D02*
X0113507Y0009191D01*
X0113507Y0008593D02*
X0096534Y0008593D01*
X0096533Y0007994D02*
X0095933Y0007994D01*
X0095933Y0007396D02*
X0096533Y0007396D01*
X0096533Y0006797D02*
X0095933Y0006797D01*
X0095933Y0006199D02*
X0096533Y0006199D01*
X0098958Y0006199D02*
X0113507Y0006199D01*
X0113507Y0006797D02*
X0099204Y0006797D01*
X0099207Y0007396D02*
X0113507Y0007396D01*
X0113507Y0007994D02*
X0099207Y0007994D01*
X0099778Y0012184D02*
X0113507Y0012184D01*
X0113507Y0012782D02*
X0100377Y0012782D01*
X0100975Y0013381D02*
X0113507Y0013381D01*
X0113507Y0013979D02*
X0101574Y0013979D01*
X0101650Y0014578D02*
X0113507Y0014578D01*
X0113507Y0015176D02*
X0101650Y0015176D01*
X0101650Y0015775D02*
X0113507Y0015775D01*
X0113507Y0016373D02*
X0101650Y0016373D01*
X0101650Y0016972D02*
X0113507Y0016972D01*
X0113507Y0017571D02*
X0101650Y0017571D01*
X0101650Y0018169D02*
X0113507Y0018169D01*
X0114003Y0018768D02*
X0101650Y0018768D01*
X0101650Y0019366D02*
X0135800Y0019366D01*
X0135800Y0018768D02*
X0134897Y0018768D01*
X0135393Y0018169D02*
X0135800Y0018169D01*
X0135800Y0017571D02*
X0135393Y0017571D01*
X0135393Y0016972D02*
X0135800Y0016972D01*
X0135800Y0016373D02*
X0135393Y0016373D01*
X0135393Y0015775D02*
X0135800Y0015775D01*
X0135800Y0015176D02*
X0135393Y0015176D01*
X0135393Y0014578D02*
X0135800Y0014578D01*
X0135800Y0013979D02*
X0135393Y0013979D01*
X0135393Y0013381D02*
X0135800Y0013381D01*
X0135800Y0012782D02*
X0135393Y0012782D01*
X0135393Y0012184D02*
X0135800Y0012184D01*
X0135800Y0011585D02*
X0135393Y0011585D01*
X0135393Y0010987D02*
X0135800Y0010987D01*
X0135800Y0010388D02*
X0135393Y0010388D01*
X0135393Y0009790D02*
X0135800Y0009790D01*
X0135800Y0009191D02*
X0135393Y0009191D01*
X0135393Y0008593D02*
X0135800Y0008593D01*
X0135800Y0007994D02*
X0135393Y0007994D01*
X0135393Y0007396D02*
X0135800Y0007396D01*
X0135800Y0006797D02*
X0135393Y0006797D01*
X0135393Y0006199D02*
X0135800Y0006199D01*
X0135800Y0005600D02*
X0135393Y0005600D01*
X0135393Y0005002D02*
X0135800Y0005002D01*
X0135800Y0004403D02*
X0135393Y0004403D01*
X0135800Y0003805D02*
X0134970Y0003805D01*
X0113930Y0003805D02*
X0067450Y0003805D01*
X0067450Y0004403D02*
X0113507Y0004403D01*
X0113507Y0005002D02*
X0067450Y0005002D01*
X0067450Y0005600D02*
X0113507Y0005600D01*
X0089217Y0006199D02*
X0067450Y0006199D01*
X0067450Y0006797D02*
X0088893Y0006797D01*
X0088893Y0007396D02*
X0067450Y0007396D01*
X0067450Y0007994D02*
X0088893Y0007994D01*
X0095933Y0017571D02*
X0096533Y0017571D01*
X0096533Y0018169D02*
X0095933Y0018169D01*
X0095933Y0018768D02*
X0096533Y0018768D01*
X0096533Y0019366D02*
X0095933Y0019366D01*
X0095933Y0019965D02*
X0096533Y0019965D01*
X0097969Y0020563D02*
X0087707Y0020563D01*
X0087707Y0019965D02*
X0089381Y0019965D01*
X0088893Y0019366D02*
X0087554Y0019366D01*
X0086909Y0018768D02*
X0088893Y0018768D01*
X0087707Y0021162D02*
X0097969Y0021162D01*
X0101650Y0021162D02*
X0128409Y0021162D01*
X0128498Y0021028D02*
X0128082Y0021650D01*
X0127796Y0022342D01*
X0127650Y0023076D01*
X0127650Y0023150D01*
X0131150Y0023150D01*
X0131750Y0023150D01*
X0131750Y0023750D01*
X0135250Y0023750D01*
X0135250Y0023824D01*
X0135104Y0024558D01*
X0134818Y0025250D01*
X0134402Y0025872D01*
X0133872Y0026402D01*
X0133250Y0026818D01*
X0132558Y0027104D01*
X0131824Y0027250D01*
X0131750Y0027250D01*
X0131750Y0023750D01*
X0131150Y0023750D01*
X0131150Y0027250D01*
X0131076Y0027250D01*
X0130342Y0027104D01*
X0129650Y0026818D01*
X0129028Y0026402D01*
X0128498Y0025872D01*
X0128082Y0025250D01*
X0127796Y0024558D01*
X0127650Y0023824D01*
X0127650Y0023750D01*
X0131150Y0023750D01*
X0131150Y0023150D01*
X0131150Y0019650D01*
X0131076Y0019650D01*
X0130342Y0019796D01*
X0129650Y0020082D01*
X0129028Y0020498D01*
X0128498Y0021028D01*
X0128963Y0020563D02*
X0101650Y0020563D01*
X0101650Y0019965D02*
X0129935Y0019965D01*
X0131150Y0019965D02*
X0131750Y0019965D01*
X0131750Y0019650D02*
X0131824Y0019650D01*
X0132558Y0019796D01*
X0133250Y0020082D01*
X0133872Y0020498D01*
X0134402Y0021028D01*
X0134818Y0021650D01*
X0135104Y0022342D01*
X0135250Y0023076D01*
X0135250Y0023150D01*
X0131750Y0023150D01*
X0131750Y0019650D01*
X0131750Y0020563D02*
X0131150Y0020563D01*
X0131150Y0021162D02*
X0131750Y0021162D01*
X0133937Y0020563D02*
X0135800Y0020563D01*
X0135800Y0019965D02*
X0132965Y0019965D01*
X0134491Y0021162D02*
X0135800Y0021162D01*
X0135800Y0021760D02*
X0134863Y0021760D01*
X0135107Y0022359D02*
X0135800Y0022359D01*
X0135800Y0022957D02*
X0135226Y0022957D01*
X0135800Y0023556D02*
X0131750Y0023556D01*
X0131750Y0024154D02*
X0131150Y0024154D01*
X0131150Y0023556D02*
X0103441Y0023556D01*
X0103718Y0024154D02*
X0127716Y0024154D01*
X0127876Y0024753D02*
X0103718Y0024753D01*
X0104059Y0025351D02*
X0128150Y0025351D01*
X0128576Y0025950D02*
X0104772Y0025950D01*
X0105485Y0026548D02*
X0129247Y0026548D01*
X0130556Y0027147D02*
X0106148Y0027147D01*
X0106200Y0027745D02*
X0106559Y0027745D01*
X0106953Y0027745D02*
X0129438Y0027745D01*
X0128765Y0028344D02*
X0107666Y0028344D01*
X0108380Y0028942D02*
X0128244Y0028942D01*
X0127996Y0029541D02*
X0109093Y0029541D01*
X0109671Y0030856D02*
X0109245Y0031282D01*
X0106701Y0031282D01*
X0105733Y0032250D01*
X0102450Y0032250D01*
X0099763Y0029563D01*
X0092749Y0029563D01*
X0092749Y0031137D02*
X0096337Y0031137D01*
X0097359Y0032159D01*
X0099548Y0031935D02*
X0100438Y0031935D01*
X0101036Y0032533D02*
X0099548Y0032533D01*
X0099481Y0033132D02*
X0101635Y0033132D01*
X0101243Y0033730D02*
X0105151Y0033730D01*
X0105864Y0034329D02*
X0101841Y0034329D01*
X0102355Y0034927D02*
X0106551Y0034927D01*
X0106980Y0035526D02*
X0102355Y0035526D01*
X0102355Y0036124D02*
X0107693Y0036124D01*
X0108208Y0036124D02*
X0108991Y0036124D01*
X0108710Y0035526D02*
X0109493Y0035526D01*
X0109212Y0034927D02*
X0109995Y0034927D01*
X0110236Y0034640D02*
X0108455Y0036764D01*
X0109638Y0037756D01*
X0109948Y0037901D01*
X0110285Y0037960D01*
X0110626Y0037931D01*
X0110948Y0037814D01*
X0111228Y0037617D01*
X0112284Y0036359D01*
X0110236Y0034640D01*
X0110498Y0034329D02*
X0110798Y0034329D01*
X0110622Y0034181D02*
X0112670Y0035899D01*
X0113726Y0034641D01*
X0113870Y0034330D01*
X0113930Y0033993D01*
X0113900Y0033652D01*
X0113783Y0033331D01*
X0113587Y0033050D01*
X0112403Y0032058D01*
X0110622Y0034181D01*
X0111000Y0033730D02*
X0110217Y0033730D01*
X0109865Y0034329D02*
X0109714Y0034329D01*
X0110578Y0034927D02*
X0111512Y0034927D01*
X0111291Y0035526D02*
X0112225Y0035526D01*
X0112005Y0036124D02*
X0113507Y0036124D01*
X0113507Y0036723D02*
X0111978Y0036723D01*
X0111476Y0037321D02*
X0113507Y0037321D01*
X0113507Y0037920D02*
X0110655Y0037920D01*
X0110055Y0037920D02*
X0101092Y0037920D01*
X0101691Y0037321D02*
X0109119Y0037321D01*
X0108489Y0036723D02*
X0102289Y0036723D01*
X0099241Y0037920D02*
X0098357Y0037920D01*
X0096369Y0034548D02*
X0094534Y0032712D01*
X0092749Y0032712D01*
X0099548Y0031336D02*
X0099839Y0031336D01*
X0109671Y0030856D02*
X0131344Y0030856D01*
X0131350Y0030850D01*
X0134704Y0029541D02*
X0135800Y0029541D01*
X0135800Y0030139D02*
X0134950Y0030139D01*
X0134950Y0030738D02*
X0135800Y0030738D01*
X0135800Y0031336D02*
X0134950Y0031336D01*
X0134797Y0031935D02*
X0135800Y0031935D01*
X0135800Y0032533D02*
X0134549Y0032533D01*
X0134159Y0033132D02*
X0135800Y0033132D01*
X0135800Y0033730D02*
X0133561Y0033730D01*
X0132359Y0034329D02*
X0135800Y0034329D01*
X0135800Y0034927D02*
X0134592Y0034927D01*
X0135191Y0035526D02*
X0135800Y0035526D01*
X0135800Y0036124D02*
X0135393Y0036124D01*
X0135393Y0036723D02*
X0135800Y0036723D01*
X0135800Y0037321D02*
X0135393Y0037321D01*
X0135393Y0037920D02*
X0135800Y0037920D01*
X0135800Y0038518D02*
X0135393Y0038518D01*
X0135393Y0039117D02*
X0135800Y0039117D01*
X0135800Y0039715D02*
X0135393Y0039715D01*
X0135393Y0040314D02*
X0135800Y0040314D01*
X0135800Y0040912D02*
X0135393Y0040912D01*
X0135393Y0041511D02*
X0135800Y0041511D01*
X0135800Y0042109D02*
X0135393Y0042109D01*
X0135393Y0042708D02*
X0135800Y0042708D01*
X0135800Y0043307D02*
X0135393Y0043307D01*
X0135393Y0043905D02*
X0135800Y0043905D01*
X0135800Y0044504D02*
X0135393Y0044504D01*
X0135393Y0045102D02*
X0135800Y0045102D01*
X0135800Y0045701D02*
X0135393Y0045701D01*
X0135393Y0046299D02*
X0135800Y0046299D01*
X0135800Y0046898D02*
X0135393Y0046898D01*
X0135393Y0047496D02*
X0135800Y0047496D01*
X0135800Y0048095D02*
X0135393Y0048095D01*
X0135393Y0048693D02*
X0135800Y0048693D01*
X0135800Y0049292D02*
X0135393Y0049292D01*
X0135275Y0049890D02*
X0135800Y0049890D01*
X0135800Y0050489D02*
X0134676Y0050489D01*
X0113709Y0035526D02*
X0112983Y0035526D01*
X0113485Y0034927D02*
X0114308Y0034927D01*
X0113871Y0034329D02*
X0130341Y0034329D01*
X0129139Y0033730D02*
X0113907Y0033730D01*
X0113644Y0033132D02*
X0128541Y0033132D01*
X0128151Y0032533D02*
X0112970Y0032533D01*
X0112004Y0032533D02*
X0111221Y0032533D01*
X0111502Y0033132D02*
X0110719Y0033132D01*
X0131150Y0027147D02*
X0131750Y0027147D01*
X0132344Y0027147D02*
X0135800Y0027147D01*
X0135800Y0026548D02*
X0133653Y0026548D01*
X0134324Y0025950D02*
X0135800Y0025950D01*
X0135800Y0025351D02*
X0134750Y0025351D01*
X0135024Y0024753D02*
X0135800Y0024753D01*
X0135800Y0024154D02*
X0135184Y0024154D01*
X0131750Y0024753D02*
X0131150Y0024753D01*
X0131150Y0025351D02*
X0131750Y0025351D01*
X0131750Y0025950D02*
X0131150Y0025950D01*
X0131150Y0026548D02*
X0131750Y0026548D01*
X0133262Y0027745D02*
X0135800Y0027745D01*
X0135800Y0028344D02*
X0133935Y0028344D01*
X0134456Y0028942D02*
X0135800Y0028942D01*
X0131750Y0022957D02*
X0131150Y0022957D01*
X0131150Y0022359D02*
X0131750Y0022359D01*
X0131750Y0021760D02*
X0131150Y0021760D01*
X0128037Y0021760D02*
X0101650Y0021760D01*
X0102244Y0022359D02*
X0127793Y0022359D01*
X0127674Y0022957D02*
X0102842Y0022957D01*
X0085033Y0022957D02*
X0084433Y0022957D01*
X0084433Y0022359D02*
X0085033Y0022359D01*
X0085033Y0023556D02*
X0084433Y0023556D01*
X0084433Y0024154D02*
X0085033Y0024154D01*
X0085033Y0024753D02*
X0084433Y0024753D01*
X0082632Y0024753D02*
X0079119Y0024753D01*
X0076797Y0025119D02*
X0080167Y0021750D01*
X0077393Y0021760D02*
X0077007Y0021760D01*
X0077007Y0022359D02*
X0077393Y0022359D01*
X0077262Y0022957D02*
X0077007Y0022957D01*
X0076664Y0023556D02*
X0076428Y0023556D01*
X0074233Y0024294D02*
X0073378Y0025150D01*
X0074578Y0025647D02*
X0074578Y0027179D01*
X0075405Y0028006D01*
X0077132Y0028006D01*
X0077151Y0027988D01*
X0079009Y0026506D02*
X0079724Y0027222D01*
X0079724Y0028986D01*
X0079009Y0026506D02*
X0077244Y0026506D01*
X0077151Y0026413D01*
X0076797Y0025119D02*
X0075105Y0025119D01*
X0074578Y0025647D01*
X0074233Y0024294D02*
X0074233Y0020750D01*
X0077007Y0020563D02*
X0077393Y0020563D01*
X0077393Y0019965D02*
X0077007Y0019965D01*
X0077007Y0019366D02*
X0077550Y0019366D01*
X0077393Y0021162D02*
X0077007Y0021162D01*
X0065966Y0023556D02*
X0065367Y0023556D01*
X0065367Y0024154D02*
X0065966Y0024154D01*
X0065966Y0024753D02*
X0065367Y0024753D01*
X0065367Y0025351D02*
X0065966Y0025351D01*
X0065966Y0025950D02*
X0065367Y0025950D01*
X0062693Y0027147D02*
X0057553Y0027147D01*
X0056955Y0027745D02*
X0062693Y0027745D01*
X0062734Y0028344D02*
X0056356Y0028344D01*
X0055758Y0028942D02*
X0063075Y0028942D01*
X0056120Y0029541D02*
X0070442Y0029541D01*
X0062693Y0033730D02*
X0058911Y0033730D01*
X0059509Y0034329D02*
X0062693Y0034329D01*
X0062693Y0034927D02*
X0060108Y0034927D01*
X0060706Y0035526D02*
X0062783Y0035526D01*
X0060733Y0037250D02*
X0054733Y0031250D01*
X0041407Y0018193D02*
X0037651Y0021949D01*
X0037650Y0021950D01*
X0037651Y0021949D02*
X0037651Y0010927D01*
X0037450Y0010726D01*
X0035926Y0012250D01*
X0016450Y0012250D01*
X0015950Y0011750D01*
X0016450Y0012250D02*
X0012450Y0012250D01*
X0040718Y0017742D02*
X0041407Y0017053D01*
X0041407Y0018193D01*
X0047201Y0017474D02*
X0047925Y0016750D01*
X0053467Y0016750D01*
X0052867Y0017350D01*
X0053467Y0016750D02*
X0052798Y0016081D01*
X0058033Y0016750D02*
X0060933Y0016750D01*
X0063933Y0013750D01*
D21*
X0070233Y0026250D02*
X0071842Y0027858D01*
X0071842Y0029158D01*
X0073821Y0031137D01*
X0077151Y0031137D01*
X0097214Y0042750D02*
X0116950Y0042750D01*
X0116961Y0042739D01*
X0116961Y0040860D01*
X0117061Y0040760D01*
X0117061Y0037250D01*
X0117193Y0041500D02*
X0119000Y0041500D01*
X0123200Y0041500D01*
X0124450Y0042750D01*
X0124950Y0042250D01*
X0127061Y0042250D01*
X0119350Y0041850D02*
X0119000Y0041500D01*
X0124450Y0011250D02*
X0128950Y0011250D01*
X0129050Y0011150D01*
X0037450Y0032250D02*
X0037450Y0037250D01*
D22*
X0070233Y0026250D02*
X0070233Y0024750D01*
X0071462Y0023522D01*
X0071754Y0023522D01*
X0072340Y0022936D01*
X0072340Y0022644D01*
X0074233Y0020750D01*
X0074233Y0024153D01*
X0073278Y0025108D01*
X0073278Y0027718D01*
X0075142Y0029581D01*
X0077132Y0029581D01*
X0077151Y0029563D01*
X0081800Y0027200D02*
X0084950Y0030350D01*
X0080167Y0022332D02*
X0080167Y0021750D01*
X0038474Y0011750D02*
X0037450Y0010726D01*
X0077450Y0042250D02*
X0077450Y0045514D01*
X0077214Y0045750D01*
D23*
X0087214Y0045750D02*
X0087214Y0042486D01*
X0087450Y0042250D01*
X0063450Y0026250D02*
X0062450Y0027250D01*
X0063450Y0026250D02*
X0065667Y0026250D01*
X0096233Y0008750D02*
X0096233Y0004733D01*
X0095750Y0004250D01*
X0090450Y0004250D01*
X0087904Y0006796D01*
X0087450Y0007250D01*
X0087904Y0006796D02*
X0087904Y0006557D01*
D24*
X0072450Y0007250D02*
X0072450Y0004300D01*
X0054409Y0004300D01*
X0047983Y0010726D01*
X0037450Y0010726D01*
X0102839Y0016189D02*
X0113900Y0027250D01*
X0117450Y0027250D01*
X0122450Y0039553D02*
X0122450Y0042250D01*
X0122950Y0042750D01*
X0124450Y0042750D01*
X0122039Y0042750D01*
D25*
X0097214Y0042750D02*
X0097214Y0045750D01*
D26*
X0101464Y0041500D01*
X0117193Y0041500D01*
M02*
