%
M48
M72
T01C0.01378
%
T01
X41407Y17053
X47201Y17474
X70233Y26250
X62450Y27250
X54733Y31250
X70233Y33250
X67450Y42250
X77450Y42250
X87450Y42250
X100167Y35750
X97359Y32159
X119450Y37550
X124550Y37850
X129050Y37550
X129450Y41850
X124450Y42750
X119350Y41850
X120350Y46150
X124850Y46750
X128850Y46450
X80167Y22332
X102839Y16189
X102839Y16189
X120050Y15350
X124850Y15350
X129350Y15350
X129050Y11150
X124450Y11250
X119750Y11150
X122750Y7250
X126950Y7550
X87904Y6557
X22450Y43250
X15950Y43250
M30
