G75*
%MOIN*%
%OFA0B0*%
%FSLAX25Y25*%
%IPPOS*%
%LPD*%
%AMOC8*
5,1,8,0,0,1.08239X$1,22.5*
%
%ADD10C,0.00500*%
%ADD11R,0.03346X0.03543*%
%ADD12R,0.12598X0.07087*%
%ADD13C,0.01102*%
%ADD14R,0.02559X0.11811*%
D10*
X0001250Y0001250D02*
X0001250Y0053150D01*
X0138350Y0053150D01*
X0138350Y0001250D01*
X0001250Y0001250D01*
D11*
X0053367Y0011050D03*
X0057933Y0011050D03*
X0058033Y0016750D03*
X0053467Y0016750D03*
X0069667Y0020750D03*
X0074233Y0020750D03*
X0080167Y0021750D03*
X0084733Y0021750D03*
X0091667Y0017250D03*
X0096233Y0017250D03*
G36*
X0101588Y0024716D02*
X0099026Y0022565D01*
X0096750Y0025278D01*
X0099312Y0027429D01*
X0101588Y0024716D01*
G37*
G36*
X0105086Y0027651D02*
X0102524Y0025500D01*
X0100248Y0028213D01*
X0102810Y0030364D01*
X0105086Y0027651D01*
G37*
G36*
X0104282Y0031563D02*
X0106844Y0033714D01*
X0109120Y0031001D01*
X0106558Y0028850D01*
X0104282Y0031563D01*
G37*
G36*
X0107780Y0034499D02*
X0110342Y0036650D01*
X0112618Y0033937D01*
X0110056Y0031786D01*
X0107780Y0034499D01*
G37*
X0070233Y0033250D03*
X0065667Y0033250D03*
X0065667Y0026250D03*
X0070233Y0026250D03*
X0091667Y0008750D03*
X0096233Y0008750D03*
D12*
X0037450Y0010726D03*
X0037450Y0032774D03*
D13*
X0025241Y0036911D02*
X0006659Y0036911D01*
X0006659Y0049589D01*
X0025241Y0049589D01*
X0025241Y0036911D01*
X0025241Y0037958D02*
X0006659Y0037958D01*
X0006659Y0039005D02*
X0025241Y0039005D01*
X0025241Y0040052D02*
X0006659Y0040052D01*
X0006659Y0041099D02*
X0025241Y0041099D01*
X0025241Y0042146D02*
X0006659Y0042146D01*
X0006659Y0043193D02*
X0025241Y0043193D01*
X0025241Y0044240D02*
X0006659Y0044240D01*
X0006659Y0045287D02*
X0025241Y0045287D01*
X0025241Y0046334D02*
X0006659Y0046334D01*
X0006659Y0047381D02*
X0025241Y0047381D01*
X0025241Y0048428D02*
X0006659Y0048428D01*
X0006659Y0049475D02*
X0025241Y0049475D01*
X0025241Y0005411D02*
X0006659Y0005411D01*
X0006659Y0018089D01*
X0025241Y0018089D01*
X0025241Y0005411D01*
X0025241Y0006458D02*
X0006659Y0006458D01*
X0006659Y0007505D02*
X0025241Y0007505D01*
X0025241Y0008552D02*
X0006659Y0008552D01*
X0006659Y0009599D02*
X0025241Y0009599D01*
X0025241Y0010646D02*
X0006659Y0010646D01*
X0006659Y0011693D02*
X0025241Y0011693D01*
X0025241Y0012740D02*
X0006659Y0012740D01*
X0006659Y0013787D02*
X0025241Y0013787D01*
X0025241Y0014834D02*
X0006659Y0014834D01*
X0006659Y0015881D02*
X0025241Y0015881D01*
X0025241Y0016928D02*
X0006659Y0016928D01*
X0006659Y0017975D02*
X0025241Y0017975D01*
X0115159Y0004911D02*
X0133741Y0004911D01*
X0115159Y0004911D02*
X0115159Y0017589D01*
X0133741Y0017589D01*
X0133741Y0004911D01*
X0133741Y0005958D02*
X0115159Y0005958D01*
X0115159Y0007005D02*
X0133741Y0007005D01*
X0133741Y0008052D02*
X0115159Y0008052D01*
X0115159Y0009099D02*
X0133741Y0009099D01*
X0133741Y0010146D02*
X0115159Y0010146D01*
X0115159Y0011193D02*
X0133741Y0011193D01*
X0133741Y0012240D02*
X0115159Y0012240D01*
X0115159Y0013287D02*
X0133741Y0013287D01*
X0133741Y0014334D02*
X0115159Y0014334D01*
X0115159Y0015381D02*
X0133741Y0015381D01*
X0133741Y0016428D02*
X0115159Y0016428D01*
X0115159Y0017475D02*
X0133741Y0017475D01*
X0133741Y0036411D02*
X0115159Y0036411D01*
X0115159Y0049089D01*
X0133741Y0049089D01*
X0133741Y0036411D01*
X0133741Y0037458D02*
X0115159Y0037458D01*
X0115159Y0038505D02*
X0133741Y0038505D01*
X0133741Y0039552D02*
X0115159Y0039552D01*
X0115159Y0040599D02*
X0133741Y0040599D01*
X0133741Y0041646D02*
X0115159Y0041646D01*
X0115159Y0042693D02*
X0133741Y0042693D01*
X0133741Y0043740D02*
X0115159Y0043740D01*
X0115159Y0044787D02*
X0133741Y0044787D01*
X0133741Y0045834D02*
X0115159Y0045834D01*
X0115159Y0046881D02*
X0133741Y0046881D01*
X0133741Y0047928D02*
X0115159Y0047928D01*
X0115159Y0048975D02*
X0133741Y0048975D01*
D14*
X0097214Y0045750D03*
X0087214Y0045750D03*
X0077214Y0045750D03*
X0067214Y0045750D03*
X0057214Y0045750D03*
M02*
